<svg width="39" height="39" viewBox="0 0 39 39" fill="none" xmlns="http://www.w3.org/2000/svg">
<path d="M19.5 14.625C20.3937 14.625 21.125 13.8938 21.125 13V9.75H24.375C25.2687 9.75 26 9.01875 26 8.125C26 7.23125 25.2687 6.5 24.375 6.5H21.125V3.25C21.125 2.35625 20.3937 1.625 19.5 1.625C18.6063 1.625 17.875 2.35625 17.875 3.25V6.5H14.625C13.7312 6.5 13 7.23125 13 8.125C13 9.01875 13.7312 9.75 14.625 9.75H17.875V13C17.875 13.8938 18.6063 14.625 19.5 14.625ZM11.375 29.25C9.5875 29.25 8.14125 30.7125 8.14125 32.5C8.14125 34.2875 9.5875 35.75 11.375 35.75C13.1625 35.75 14.625 34.2875 14.625 32.5C14.625 30.7125 13.1625 29.25 11.375 29.25ZM27.625 29.25C25.8375 29.25 24.3913 30.7125 24.3913 32.5C24.3913 34.2875 25.8375 35.75 27.625 35.75C29.4125 35.75 30.875 34.2875 30.875 32.5C30.875 30.7125 29.4125 29.25 27.625 29.25ZM13.1625 21.125H25.2688C26.4875 21.125 27.56 20.4587 28.1125 19.4513L33.3775 9.47375C33.5761 9.09801 33.6192 8.65934 33.4977 8.25212C33.3761 7.84489 33.0995 7.50165 32.7275 7.29625C32.5391 7.19304 32.332 7.12838 32.1183 7.10605C31.9046 7.08371 31.6886 7.10415 31.4829 7.16617C31.2771 7.22818 31.0858 7.33054 30.9201 7.46726C30.7544 7.60398 30.6175 7.77233 30.5175 7.9625L25.2688 17.875H13.8612L6.93875 3.25H3.25C2.35625 3.25 1.625 3.98125 1.625 4.875C1.625 5.76875 2.35625 6.5 3.25 6.5H4.875L10.725 18.8337L8.53125 22.7987C7.345 24.9762 8.905 27.625 11.375 27.625H29.25C30.1437 27.625 30.875 26.8937 30.875 26C30.875 25.1063 30.1437 24.375 29.25 24.375H11.375L13.1625 21.125Z" fill="#EF4950"/>
</svg>
