<svg width="38" height="38" viewBox="0 0 38 38" fill="none" xmlns="http://www.w3.org/2000/svg">
<path d="M26.9166 28.5C27.7565 28.5 28.562 28.8336 29.1558 29.4275C29.7497 30.0214 30.0833 30.8268 30.0833 31.6667C30.0833 32.5065 29.7497 33.312 29.1558 33.9058C28.562 34.4997 27.7565 34.8333 26.9166 34.8333C26.0768 34.8333 25.2713 34.4997 24.6775 33.9058C24.0836 33.312 23.75 32.5065 23.75 31.6667C23.75 29.9092 25.1591 28.5 26.9166 28.5ZM1.58331 3.16666H6.76081L8.24915 6.33332H31.6666C32.0866 6.33332 32.4893 6.50014 32.7862 6.79707C33.0832 7.094 33.25 7.49673 33.25 7.91666C33.25 8.18582 33.1708 8.45499 33.06 8.70832L27.3916 18.9525C26.8533 19.9183 25.8083 20.5833 24.6208 20.5833H12.825L11.4 23.1642L11.3525 23.3542C11.3525 23.4591 11.3942 23.5598 11.4684 23.6341C11.5427 23.7083 11.6433 23.75 11.7483 23.75H30.0833V26.9167H11.0833C10.2435 26.9167 9.43801 26.583 8.84414 25.9892C8.25028 25.3953 7.91665 24.5898 7.91665 23.75C7.91665 23.1958 8.05915 22.6733 8.29665 22.23L10.45 18.3508L4.74998 6.33332H1.58331V3.16666ZM11.0833 28.5C11.9232 28.5 12.7286 28.8336 13.3225 29.4275C13.9163 30.0214 14.25 30.8268 14.25 31.6667C14.25 32.5065 13.9163 33.312 13.3225 33.9058C12.7286 34.4997 11.9232 34.8333 11.0833 34.8333C10.2435 34.8333 9.43801 34.4997 8.84414 33.9058C8.25028 33.312 7.91665 32.5065 7.91665 31.6667C7.91665 29.9092 9.32581 28.5 11.0833 28.5ZM25.3333 17.4167L29.735 9.49999H9.72165L13.4583 17.4167H25.3333Z" fill="white"/>
</svg>
