<svg width="33" height="33" viewBox="0 0 33 33" fill="none" xmlns="http://www.w3.org/2000/svg">
<path d="M21.4383 10.1108L19.1485 10.0795C18.3414 10.0732 18.1663 10.3985 18.16 11.243L18.1412 13.2572L21.407 13.2884L21.0629 16.8289L18.1099 16.7976L18.0036 27.3816L13.7743 27.3378L13.8807 16.7976L11.6847 16.7851L11.716 13.1946L13.912 13.2134L13.937 10.386C13.9683 7.73375 15.401 6.3701 18.5416 6.40137L21.4696 6.43265L21.4383 10.1108ZM16.7023 0.0710312C7.60556 -0.0165427 0.166776 7.28337 0.0729314 16.366C-0.0209137 25.4549 7.28023 32.8987 16.3707 32.9988C25.4674 33.0864 32.9062 25.7802 32.9938 16.6976C33.0876 7.60864 25.7865 0.16486 16.696 0.0772865L16.7023 0.0710312Z" fill="white"/>
</svg>
