<svg width="34" height="34" viewBox="0 0 34 34" fill="none" xmlns="http://www.w3.org/2000/svg">
<path d="M22.5451 13.4815C21.9132 13.4752 21.4064 12.956 21.4127 12.3242C21.4252 11.6987 21.9319 11.1858 22.5701 11.192C23.202 11.1983 23.7087 11.7175 23.7025 12.343C23.6962 12.981 23.1769 13.4752 22.5451 13.4752V13.4815ZM17.3773 22.2576C14.6808 22.2263 12.5099 20.0182 12.5349 17.316C12.5537 14.6199 14.7747 12.4556 17.4712 12.4806C20.1739 12.5119 22.3386 14.7138 22.3136 17.416C22.2885 20.1121 20.0801 22.2764 17.3773 22.2576ZM24.9037 11.8301C24.7348 11.3797 24.5283 11.0669 24.203 10.7291C23.8651 10.3914 23.5586 10.1849 23.1144 9.99728C22.7828 9.86592 22.2823 9.70953 21.3501 9.65949C20.3428 9.60319 20.0425 9.58443 17.5024 9.56566C14.9561 9.53439 14.6558 9.5469 13.6485 9.57817C12.7226 9.61571 12.2158 9.75958 11.878 9.89094C11.4338 10.0598 11.121 10.2537 10.7706 10.5853C10.439 10.9231 10.2326 11.2358 10.0512 11.6799C9.91977 12.0115 9.75711 12.5119 9.70706 13.4377C9.65075 14.4385 9.64449 14.7388 9.61321 17.2847C9.58193 19.8243 9.58818 20.1246 9.63198 21.1254C9.66326 22.0512 9.81967 22.5641 9.93854 22.9019C10.1075 23.346 10.3077 23.6713 10.6392 24.0028C10.9708 24.3406 11.2899 24.5533 11.7279 24.7159C12.0657 24.8536 12.5662 25.0099 13.4921 25.0662C14.4869 25.1225 14.7935 25.135 17.3335 25.1601C19.8736 25.1851 20.1739 25.1851 21.1812 25.1413C22.1071 25.11 22.6201 24.9662 22.958 24.8348C23.4022 24.6659 23.715 24.4595 24.0528 24.1342C24.3907 23.8027 24.5971 23.4899 24.7786 23.0458C24.91 22.708 25.0664 22.2076 25.1227 21.2881C25.1727 20.281 25.1915 19.9807 25.2165 17.4348C25.2415 14.9014 25.2353 14.5949 25.1915 13.5878C25.1602 12.6683 25.01 12.1616 24.8912 11.8301H24.9037Z" fill="white"/>
<path d="M17.2096 14.0001C15.4516 13.9876 14.0251 15.3888 14.0001 17.1403C13.9876 18.8918 15.3953 20.3242 17.147 20.343C18.8988 20.3555 20.3378 18.9481 20.3503 17.2028C20.3691 15.4451 18.9614 14.0127 17.2096 14.0001Z" fill="white"/>
<path d="M26.8432 21.3756C26.7931 22.389 26.6242 23.0833 26.3864 23.6838C26.1299 24.3093 25.8046 24.8348 25.2603 25.3602C24.7285 25.8857 24.1967 26.2047 23.5648 26.4424C22.9642 26.6676 22.2635 26.824 21.25 26.8615C20.2427 26.899 19.9174 26.9053 17.3273 26.874C14.7434 26.8552 14.4181 26.8365 13.4045 26.7802C12.3848 26.7239 11.7028 26.5612 11.096 26.3235C10.4766 26.0733 9.94479 25.7481 9.42552 25.2164C8.90624 24.6784 8.58091 24.1404 8.34943 23.5149C8.11794 22.9019 7.96779 22.2138 7.93025 21.2005C7.89271 20.1871 7.88021 19.8556 7.90523 17.2722C7.93026 14.6887 7.94277 14.3697 7.99907 13.3501C8.06164 12.3367 8.2243 11.6487 8.4683 11.0419C8.71855 10.4226 9.05014 9.89718 9.58192 9.37174C10.12 8.8463 10.6455 8.52728 11.2774 8.28958C11.8905 8.05813 12.585 7.90175 13.5922 7.87673C14.612 7.83294 14.9374 7.82669 17.515 7.85796C20.0988 7.87673 20.4242 7.8955 21.4377 7.95179C22.4512 8.00183 23.1457 8.17698 23.7463 8.42094C24.3719 8.67115 24.9037 8.99642 25.423 9.52812C25.9485 10.0661 26.2676 10.5915 26.5053 11.2296C26.7305 11.8363 26.8869 12.5307 26.9245 13.5378C26.962 14.5574 26.9683 14.8826 26.937 17.4661C26.9182 20.0495 26.8995 20.381 26.8432 21.3881V21.3756ZM17.5713 0.56431C8.48081 0.470481 1.03577 7.77039 0.941927 16.8593C0.854339 25.9482 8.14922 33.3857 17.2459 33.4858C26.3426 33.5734 33.7814 26.2798 33.8753 17.1846C33.9629 8.09566 26.668 0.658139 17.5713 0.570565V0.56431Z" fill="white"/>
</svg>
