<svg width="166" height="38" viewBox="0 0 166 38" fill="none" xmlns="http://www.w3.org/2000/svg">
<g clip-path="url(#clip0_154_21)">
<path d="M53.0154 0.0789945C55.445 0.16444 57.5053 1.07855 59.203 2.82776C60.8829 4.57697 61.7276 6.67119 61.7276 9.11042V12.8249H54.5051V9.11042C54.5051 8.62838 54.3326 8.20599 53.9795 7.85292C53.6264 7.49985 53.196 7.31929 52.6865 7.31929C52.2561 7.31929 51.8772 7.45633 51.5483 7.72395C51.5048 7.75942 51.4629 7.80133 51.4274 7.85292H51.4016C51.3678 7.88839 51.3323 7.93031 51.2985 7.97383H51.2727C51.2388 8.02542 51.2114 8.06895 51.1953 8.10281C51.1953 8.10281 51.1953 8.11087 51.1953 8.1286H51.1775C51.1437 8.18019 51.1163 8.22372 51.1002 8.25758C51.1179 8.23984 51.1179 8.24952 51.1002 8.28337C51.0663 8.33496 51.0389 8.36882 51.0228 8.40429C51.0228 8.40429 51.0147 8.43008 50.997 8.48167L50.9712 8.58485C50.9712 8.58485 50.9631 8.62032 50.9454 8.68803C50.9277 8.73156 50.9196 8.75735 50.9196 8.75735C50.9196 8.77509 50.9115 8.80894 50.8938 8.86053C50.8938 8.91212 50.8938 8.93792 50.8938 8.93792C50.8938 9.00724 50.8938 9.05883 50.8938 9.11042V17.1165C50.8938 17.6163 51.0744 18.0467 51.4274 18.3998C51.7805 18.7367 52.2029 18.8996 52.6849 18.8996L53.0122 18.9254C55.4418 19.0108 57.5021 19.933 59.1998 21.6838C60.8796 23.433 61.7244 25.5272 61.7244 27.9665C61.7244 30.4573 60.8538 32.5854 59.0966 34.3442C57.3296 36.1112 55.1919 36.9979 52.6849 36.9979H43.6454V29.7592H52.6849C53.1928 29.7592 53.6248 29.5786 53.9779 29.2256C54.331 28.8725 54.5035 28.4501 54.5035 27.9681C54.5035 27.4602 54.331 27.0282 53.9779 26.6751C53.6248 26.322 53.1944 26.1495 52.6849 26.1495H52.3319C49.9281 26.0464 47.8855 25.1323 46.1959 23.4008C44.5144 21.6516 43.6616 19.5654 43.6454 17.1358V9.08624C43.6632 6.59542 44.5499 4.47541 46.2991 2.72619C48.0483 0.976978 50.1683 0.0983407 52.6591 0.0806067H53.0122L53.0154 0.0789945ZM74.4816 22.5028V9.10236C74.4816 8.59291 74.301 8.16246 73.948 7.80939C73.5949 7.45633 73.1725 7.28382 72.6905 7.28382C72.1826 7.28382 71.7506 7.45633 71.3975 7.80939C71.0444 8.16246 70.8719 8.59291 70.8719 9.10236V22.5028H74.4832H74.4816ZM66.2772 2.68105C68.0442 0.914103 70.1803 0.0274048 72.6889 0.0274048C75.1797 0.0274048 77.3077 0.914103 79.0747 2.68105C80.8416 4.448 81.7283 6.58575 81.7283 9.09269V36.9979H74.48V29.7495H70.8687V36.9979H63.6203V9.09269C63.6203 6.58575 64.5087 4.448 66.274 2.68105H66.2772ZM102.334 28.0954L103.591 36.9979H96.3427L95.111 28.2599L95.0594 27.9326C94.9901 27.4328 94.758 27.0024 94.3533 26.6477C93.9487 26.2946 93.5005 26.1141 93.0088 26.1141H91.4482V36.9979H84.1998V0.802863H91.4482V18.9092H92.4816C92.991 18.9092 93.4376 18.7287 93.8439 18.3756C94.2485 18.0225 94.4807 17.6002 94.55 17.1181L96.8506 0.804475H104.099L101.798 17.1262C101.531 18.9882 100.755 20.6859 99.472 22.219C101.058 23.8828 101.997 25.7868 102.308 27.9149L102.334 28.0954ZM124.016 0.802863V28.7242C124.016 31.2231 123.145 33.3511 121.396 35.1181C119.621 36.885 117.483 37.7717 114.975 37.7717C112.484 37.7717 110.356 36.885 108.589 35.1181C106.822 33.3511 105.943 31.2231 105.943 28.7242V0.802863H113.182V28.6984C113.182 29.1901 113.363 29.6125 113.716 29.9656C114.069 30.3186 114.491 30.4911 114.973 30.4911C115.483 30.4911 115.913 30.3186 116.266 29.9656C116.619 29.6125 116.792 29.1901 116.792 28.6984V0.802863H124.013H124.016ZM135.659 18.9173C136.159 18.8996 136.589 18.7287 136.944 18.3917C137.297 18.0387 137.477 17.6082 137.477 17.0988V9.86008C137.477 9.36837 137.297 8.94598 136.944 8.59291C136.591 8.23984 136.16 8.06734 135.659 8.06734H133.866V18.9173H135.659ZM145.932 36.9979H138.709L137.477 28.2857L137.452 27.9584C137.366 27.4586 137.116 27.0282 136.72 26.6751C136.315 26.322 135.867 26.1415 135.375 26.1415H133.868V36.9995H126.619V0.804475H135.702C138.185 0.822209 140.304 1.70891 142.071 3.45812C143.82 5.20734 144.69 7.32735 144.69 9.81817V17.1181C144.69 19.359 143.958 21.3243 142.493 23.0042C143.691 24.4858 144.415 26.1237 144.665 27.9084L144.69 28.1067L145.932 36.9995V36.9979ZM157.876 22.5028V9.10236C157.876 8.59291 157.696 8.16246 157.343 7.80939C156.99 7.45633 156.567 7.28382 156.085 7.28382C155.577 7.28382 155.145 7.45633 154.792 7.80939C154.439 8.16246 154.267 8.59291 154.267 9.10236V22.5028H157.878H157.876ZM149.672 2.68105C151.439 0.914103 153.575 0.0274048 156.084 0.0274048C158.574 0.0274048 160.703 0.914103 162.469 2.68105C164.236 4.448 165.123 6.58575 165.123 9.09269V36.9979H157.875V29.7495H154.263V36.9979H147.015V9.09269C147.015 6.58575 147.903 4.448 149.669 2.68105H149.672Z" fill="#FEFEFE"/>
<path d="M29.4776 16.8763C29.1165 17.0182 28.7538 17.2358 28.3733 17.3196C28.2347 17.3503 28.1008 17.1697 28.225 17.0649C28.5248 16.8054 28.9102 16.6522 29.2439 16.441C29.5824 16.2282 29.9371 16.038 30.2886 15.8445C30.9657 15.4705 31.6492 15.1093 32.3312 14.7434C32.3489 14.695 32.3602 14.645 32.386 14.5967C32.544 14.2855 32.9116 14.2662 33.1905 14.3855C33.2066 14.3919 33.2211 14.3984 33.2372 14.4048C33.4484 14.4951 33.5226 14.7885 33.4742 14.9884C33.4694 15.0094 33.4646 15.0287 33.4597 15.0497C33.3807 15.3834 33.0406 15.5124 32.7359 15.4608C32.7085 15.456 32.6875 15.4447 32.6633 15.4366C31.9781 15.7542 31.2946 16.0783 30.6046 16.3894C30.2321 16.5571 29.8581 16.7296 29.476 16.8795L29.4776 16.8763ZM15.895 13.8422C17.1122 13.4794 18.5455 13.8664 19.0259 15.3657L19.0581 15.4866C19.063 15.5043 19.0678 15.5237 19.0726 15.5414L19.2548 16.2089L19.4305 15.5398C19.4338 15.5221 19.4402 15.5027 19.4451 15.485C19.4451 15.485 19.4757 15.3641 19.4821 15.3544C19.5627 15.0884 19.6853 14.8288 19.8578 14.5902C21.9359 11.7012 26.6273 15.9493 23.461 18.2289L23.3578 18.2966C23.3417 18.3063 23.3272 18.3176 23.3111 18.3273L22.7323 18.7061L23.4223 18.6658C23.44 18.6642 23.4594 18.6642 23.4771 18.6626C23.4771 18.6626 23.5996 18.6561 23.6125 18.6561C25.0006 18.8464 26.3661 20.1426 26.2452 21.6371C26.1275 23.1009 24.5154 24.0086 23.1434 23.7796C24.8491 26.314 26.7579 29.3707 30.5385 35.4115C30.7867 35.3777 31.0286 35.3986 31.3284 35.2987C32.3634 34.9504 33.0148 33.7203 33.4178 32.7369C34.3529 30.4492 34.1094 27.723 32.6456 25.7094C32.1651 25.0484 31.5896 24.4987 30.956 24.0537L30.9334 24.0311L30.6449 23.8441C30.6013 23.8167 30.5578 23.7861 30.5143 23.7587L28.9037 22.714L30.8206 22.8156C30.8722 22.8204 30.9254 22.8204 30.977 22.8236L31.322 22.8414L31.3526 22.8365C32.1265 22.8494 32.9148 22.743 33.6935 22.4899C35.8119 21.8015 37.4273 20.0813 38.1286 17.9839C38.5494 16.7231 39.1104 14.2694 37.9899 13.2199C37.2129 12.4912 36.4568 13.028 36.1263 11.8447C35.8844 10.9773 36.2907 10.4147 35.4701 9.71499C34.7382 9.08947 33.7064 8.78154 32.7762 8.63644C30.6545 8.30434 28.9682 8.91696 27.1368 9.86331L27.1094 9.87782L26.8417 10.0955C26.8014 10.1293 26.7595 10.16 26.7208 10.1938L25.2296 11.4029L25.918 9.61181C25.9389 9.56345 25.955 9.51347 25.9744 9.4651C26.645 7.7965 26.5145 6.08598 25.9873 4.39641C25.5504 2.99865 24.6443 1.79274 23.4368 0.968921C22.6436 0.427229 21.6376 -0.188624 20.6477 0.0483664C20.0577 0.190238 19.3854 1.13014 18.7599 0.881863C18.6083 0.822212 18.4955 0.698075 18.373 0.591671C16.0063 -1.46547 12.9044 2.89547 12.3466 4.81236C12.1612 5.45078 12.0709 6.115 12.0693 6.78083C12.0693 7.65624 12.2886 8.53649 12.5788 9.39739C13.8492 11.1015 14.9422 12.5637 15.8999 13.8389L15.895 13.8422ZM18.6035 4.77528C18.6164 4.76721 18.6293 4.75754 18.6422 4.74948C18.7873 4.65275 19.0194 4.65275 19.1661 4.74948C19.179 4.75754 19.1919 4.76721 19.2048 4.77528C19.4708 4.951 19.5595 5.28311 19.4209 5.55557C19.3999 5.83609 19.3628 6.14563 19.2306 6.38584C19.1807 6.93882 19.1468 7.49019 19.1129 8.04316C19.0775 8.62516 19.0082 9.20393 18.984 9.78593C18.9791 9.8875 18.8308 9.8875 18.826 9.78593C18.8018 9.20232 18.7325 8.62516 18.697 8.04316C18.6631 7.49019 18.6293 6.93721 18.5793 6.38584C18.4455 6.14563 18.41 5.83609 18.3891 5.55557C18.252 5.28311 18.3407 4.951 18.6051 4.77528H18.6035Z" fill="#EF4950"/>
<path d="M22.3953 16.1202C22.4259 16.0847 22.463 16.0444 22.4856 16.0041C22.5259 15.9332 22.5162 15.8638 22.5049 15.7881C22.492 15.7075 22.3953 15.643 22.3179 15.6462C22.2518 15.6494 22.1906 15.6591 22.1374 15.6994C22.0987 15.73 22.068 15.7703 22.039 15.809C21.9826 15.8816 21.9278 15.9557 21.8746 16.0299C21.7762 16.1653 21.686 16.3088 21.5957 16.4507C21.507 16.5877 21.4183 16.7248 21.3345 16.865C21.291 16.9392 21.241 17.0117 21.2023 17.0891C21.1636 17.1665 21.133 17.2487 21.0943 17.3277C21.0604 17.3986 21.1459 17.476 21.2071 17.4148C21.2652 17.3567 21.3248 17.3035 21.3845 17.2487C21.4457 17.1907 21.5006 17.1197 21.557 17.0569C21.6682 16.9311 21.7795 16.8054 21.8923 16.6812C22.0019 16.5603 22.1148 16.4426 22.2244 16.3201C22.2825 16.2556 22.3405 16.1911 22.3953 16.125V16.1202Z" fill="#EF4950"/>
<path d="M23.8254 21.147C23.6448 21.0873 23.4642 21.0309 23.2837 20.968C23.1112 20.9084 22.9403 20.8423 22.7694 20.7762C22.5872 20.7068 22.4018 20.6456 22.2261 20.5617C22.1713 20.5359 22.1342 20.6053 22.1793 20.6407C22.3373 20.7633 22.4872 20.8955 22.6501 21.0099C22.8016 21.1163 22.958 21.2147 23.1176 21.3082C23.2772 21.4017 23.4368 21.492 23.6045 21.5694C23.6932 21.6113 23.7834 21.65 23.8737 21.6887C23.9817 21.7354 24.093 21.7999 24.2123 21.7934C24.4106 21.7838 24.567 21.5129 24.3896 21.3646C24.2381 21.2372 24.0091 21.2066 23.8237 21.1454L23.8254 21.147Z" fill="#EF4950"/>
<path d="M19.516 24.0602C19.458 23.8812 19.3951 23.7039 19.3403 23.5233C19.2854 23.3395 19.2065 23.1573 19.171 22.9687C19.1629 22.9203 19.0855 22.9316 19.0855 22.98C19.0855 23.0848 19.0726 23.1831 19.0597 23.2863C19.0485 23.383 19.0549 23.483 19.0565 23.5797C19.0614 23.77 19.0662 23.9634 19.0936 24.1537C19.1194 24.3407 19.1549 24.5261 19.2048 24.7099C19.2532 24.8872 19.2951 25.2 19.4805 25.2854C19.5773 25.3306 19.7062 25.3177 19.7627 25.2113C19.861 25.0242 19.7417 24.8034 19.6853 24.6196C19.6288 24.4326 19.574 24.2456 19.516 24.0585V24.0602Z" fill="#FEFEFE"/>
<path d="M16.6575 20.4005C16.6027 20.4215 16.5479 20.4215 16.4915 20.4327C16.4447 20.4424 16.3964 20.465 16.3512 20.4811C16.2513 20.515 16.1513 20.5488 16.0514 20.5843C15.8643 20.6488 15.6757 20.702 15.4903 20.7713C15.3049 20.8406 15.1195 20.9116 14.9357 20.9809C14.8438 21.0163 14.7503 21.0502 14.6584 21.0857C14.594 21.1099 14.523 21.1244 14.4618 21.1566C14.4021 21.1889 14.3505 21.2372 14.2973 21.2791C14.1957 21.3581 14.1909 21.5355 14.2506 21.6387C14.3183 21.7547 14.4569 21.8047 14.5859 21.7741C14.7906 21.7273 14.968 21.5951 15.1502 21.4871C15.3275 21.3823 15.5064 21.2791 15.6838 21.1711C15.8547 21.0679 16.0175 20.9535 16.1868 20.8471C16.2706 20.7939 16.3561 20.7407 16.4399 20.6875C16.4818 20.6617 16.5286 20.6375 16.5656 20.6085C16.6124 20.5714 16.6479 20.5279 16.6978 20.4972C16.7462 20.4666 16.7156 20.3795 16.6575 20.4005Z" fill="#FEFEFE"/>
<path d="M21.7311 25.3257C21.3232 26.3817 20.1915 27.054 18.9968 26.9347C17.6732 26.8025 16.7059 25.8013 16.6995 24.4713C16.6963 23.878 16.9413 23.346 17.1428 22.801C16.5592 24.3713 13.6396 23.8699 12.8432 22.8784C12.1757 22.0465 12.1306 20.8277 12.6884 19.9281C13.4155 18.7529 14.5762 18.7109 15.8176 18.7045C14.9632 18.4175 14.2764 17.6759 14.0571 16.8005C13.8201 15.8526 14.1361 15.061 14.7117 14.5177C13.9459 13.3101 13.0801 11.9479 12.0967 10.4034L11.8436 10.1986C11.8049 10.1648 11.7614 10.1342 11.7227 10.1003L11.4551 9.88266L11.4277 9.86815C10.8086 9.40384 10.1073 9.02659 9.33021 8.77348C7.47298 8.16891 5.45937 8.45104 3.78271 9.42802C3.15557 9.79237 1.89323 10.5501 1.69493 11.2965C1.46278 12.1736 2.28983 12.9539 1.60788 13.8857C1.42248 14.1404 1.16292 14.329 0.9227 14.5306C-0.115543 15.406 -0.146174 16.4781 0.203669 17.7082C0.70022 19.4558 1.91903 20.9583 3.48284 21.8708C5.39327 22.9864 7.5278 22.8929 9.66071 22.7075C9.169 22.7495 8.51445 23.5314 8.05014 23.7635C8.005 23.7893 7.96309 23.8199 7.91956 23.849L7.62937 24.036L7.60679 24.0585C6.97321 24.5035 6.39766 25.0533 5.91723 25.7143C4.90801 27.1023 4.51786 28.8403 4.72583 30.5331C4.8274 31.3504 5.03859 32.4306 5.52547 33.1174C6.08006 33.8993 6.68463 33.6381 7.40527 34.1218C7.97276 34.5022 7.64226 35.0439 7.85507 35.526C8.12592 36.1402 8.65794 36.3756 9.32215 36.6368C12.2789 37.8056 15.7257 36.7609 17.5894 34.1943C18.0698 33.5333 18.4148 32.8159 18.6422 32.0759L18.6567 32.0485L18.7453 31.7148C18.7582 31.6648 18.7744 31.6148 18.7856 31.5649L19.2806 29.7092L19.7755 31.5649C19.7868 31.6148 19.8029 31.6648 19.8158 31.7148L19.9045 32.0485L19.919 32.0759C20.1479 32.8159 20.4913 33.5333 20.9718 34.1943C22.1486 35.8146 23.9801 36.8867 25.9695 37.1188C26.745 37.2091 28.283 37.3252 28.9601 36.8415C29.2374 36.6448 29.3922 36.3353 29.5776 36.0596C25.5165 30.575 23.4368 27.7714 21.7311 25.3273V25.3257ZM13.9749 27.7762C13.9249 27.9358 13.8749 28.0954 13.8234 28.255C13.7218 28.5743 13.6041 28.887 13.4912 29.203C13.272 29.8172 13.0543 30.4315 12.8351 31.0457C12.8464 31.0635 12.8593 31.0812 12.8706 31.1005C13.1914 31.5923 12.6142 32.1468 12.1225 31.9502C11.6179 31.747 11.6534 30.9619 12.1934 30.8265C12.2096 30.8232 12.2257 30.8184 12.2418 30.8136C12.4981 30.2106 12.7561 29.6061 13.0124 29.0015C13.1479 28.6823 13.2801 28.3582 13.4268 28.0422C13.4977 27.8907 13.567 27.7392 13.638 27.5892C13.7202 27.4199 13.825 27.2861 13.9233 27.1314C13.9797 27.0411 14.1087 27.1023 14.0894 27.2007C14.0523 27.3974 14.0346 27.5812 13.9733 27.7746L13.9749 27.7762ZM9.84289 16.6425C9.07065 16.5796 8.30326 16.3088 7.56004 16.0976C7.17634 15.988 6.79426 15.8767 6.41056 15.7639C6.22677 15.7091 6.04298 15.6559 5.85919 15.6027C5.71571 15.5608 5.55288 15.4995 5.3965 15.4753C5.28848 15.5156 5.16918 15.5269 5.04504 15.4963C5.01441 15.4882 4.98378 15.4818 4.95154 15.4737C4.68069 15.4092 4.53882 15.1561 4.51464 14.8998C4.49851 14.7353 4.58396 14.5967 4.68875 14.479C4.87738 14.2662 5.17402 14.2855 5.41101 14.3855L5.49806 14.4226C5.57706 14.4564 5.64316 14.5273 5.69475 14.6096C5.83662 14.6789 5.99139 14.7305 6.13649 14.7853C6.31705 14.8514 6.49762 14.9175 6.67657 14.9836C7.0377 15.1158 7.39882 15.248 7.75673 15.385C8.48221 15.6591 9.27379 15.8945 9.93317 16.3072C10.0767 16.3959 10.0299 16.6619 9.84128 16.6474L9.84289 16.6425Z" fill="#FEFEFE"/>
</g>
<defs>
<clipPath id="clip0_154_21">
<rect width="165.125" height="37.7734" fill="white"/>
</clipPath>
</defs>
</svg>

