<svg width="33" height="33" viewBox="0 0 33 33" fill="none" xmlns="http://www.w3.org/2000/svg">
<path d="M25.0816 13.5816C25.2631 18.9236 21.234 24.8411 14.1831 24.7598C12.0434 24.741 10.0477 24.0967 8.38347 23.002C10.3918 23.2648 12.4 22.7205 14.0204 21.4945C12.3562 21.4445 10.9673 20.3248 10.5044 18.8235C11.0987 18.9424 11.6806 18.9173 12.2123 18.7735C10.3918 18.3919 9.14674 16.7342 9.2093 14.9765C9.71607 15.2705 10.3042 15.4457 10.9235 15.4644C9.24058 14.3197 8.79013 12.0866 9.7974 10.3914C11.6493 12.7059 14.4333 14.2384 17.5803 14.4261C17.0485 12.049 18.8753 9.78464 21.3216 9.8034C22.4164 9.81591 23.3987 10.2851 24.0806 11.0294C24.9502 10.8668 25.7636 10.5603 26.5018 10.1412C26.214 11.0169 25.6072 11.755 24.8126 12.2117C25.5821 12.1304 26.3141 11.9302 26.9961 11.6425C26.4768 12.3931 25.8324 13.0624 25.0879 13.5816H25.0816ZM16.6293 0.00138276C7.53886 -0.0924464 0.0938234 7.20746 -2.16505e-05 16.2964C-0.0938667 25.3853 7.21353 32.8291 16.304 32.9229C25.4007 33.0105 32.8395 25.7106 32.9271 16.6279C33.0209 7.53274 25.7198 0.0952119 16.6293 0.00138276Z" fill="white"/>
</svg>
