<svg width="34" height="34" viewBox="0 0 34 34" fill="none" xmlns="http://www.w3.org/2000/svg">
<path d="M21.5935 19.2989C21.3933 19.8306 20.4611 20.3435 20.0356 20.3748C19.6102 20.4061 19.6102 20.7126 17.2891 19.7743C14.9743 18.8423 13.5228 16.4527 13.4164 16.3089C13.3289 16.19 12.8409 15.527 12.6156 14.7263C12.5468 14.4761 12.503 14.2134 12.503 13.9506C12.5155 12.8247 13.1099 12.2867 13.3289 12.0553C13.5353 11.8301 13.7856 11.7801 13.942 11.7801C14.0984 11.7801 14.2548 11.8113 14.3799 11.8113C14.5176 11.8113 14.7115 11.73 14.8929 12.1992C15.0806 12.6495 15.5373 13.7692 15.5874 13.8881C15.6437 14.0069 15.6812 14.1383 15.5999 14.2884C15.5436 14.401 15.5061 14.4761 15.4623 14.5574L15.3747 14.6575C15.2558 14.7951 15.1307 14.9577 15.0243 15.0578C14.9117 15.1767 14.7928 15.2893 14.918 15.5145C15.0493 15.7459 15.5061 16.5028 16.1755 17.097C17.0389 17.8852 17.7771 18.1354 18.0086 18.248C18.2338 18.3606 18.3652 18.3418 18.5028 18.1917C18.6405 18.0416 19.0784 17.5349 19.2348 17.3097C19.3912 17.0908 19.5476 17.1283 19.7541 17.2159C19.9668 17.2847 21.0805 17.8414 21.3182 17.9665C21.5434 18.0729 21.6936 18.1354 21.7436 18.2292C21.7999 18.3231 21.7999 18.7797 21.606 19.2989H21.5935ZM17.1139 8.24583C13.0411 8.20204 9.64387 11.2609 9.22469 15.2017C9.19341 15.4519 9.1809 15.7021 9.1809 15.9586C9.16839 17.6663 9.70018 19.2489 10.6261 20.55L9.6251 23.4336L12.6532 22.5016C13.8857 23.3336 15.3622 23.8215 16.9638 23.834C21.2932 23.8778 24.8593 20.4186 24.9031 16.1212C24.9031 15.9085 24.8968 15.7021 24.878 15.5082C24.6028 11.4923 21.2431 8.28336 17.1139 8.24583Z" fill="white"/>
<path d="M16.945 25.3102C15.3059 25.2977 13.7731 24.8661 12.4405 24.1154L7.24144 25.7105L8.97445 20.7626C8.14235 19.3552 7.66687 17.71 7.69189 15.9523C7.69815 15.8209 7.69815 15.6833 7.69815 15.5457C7.96718 10.6165 12.1026 6.71951 17.1327 6.76955C22.2129 6.81959 26.3045 10.8855 26.3858 15.9085C26.3858 15.9836 26.3858 16.0649 26.3858 16.14C26.3358 21.263 22.1065 25.3727 16.945 25.3164V25.3102ZM16.97 0.526781C7.88584 0.439208 0.440801 7.73286 0.353212 16.828C0.259367 25.9107 7.56051 33.3545 16.6447 33.4421C25.7414 33.5359 33.1802 26.236 33.274 17.1471C33.3616 8.05188 26.0668 0.620611 16.9763 0.526781H16.97Z" fill="white"/>
</svg>
